<svg id="Layer_1" data-name="Layer 1" xmlns="http://www.w3.org/2000/svg" viewBox="0 0 160 160"><defs><style>.cls-1{fill:#fff;}</style></defs><title>information</title><path class="cls-1" d="M80,15a65,65,0,1,0,65,65A65,65,0,0,0,80,15Zm0,10A55,55,0,1,1,25,80,55,55,0,0,1,80,25Z"/><path class="cls-1" d="M90,51.25A11.25,11.25,0,1,1,78.75,40,11.25,11.25,0,0,1,90,51.25Z"/><path class="cls-1" d="M90.67,111c-.07,2.73,1.21,3.5,4.33,3.82l5,.1V120H60.93v-5.12l5.5-.1c3.29-.1,4.08-1.38,4.33-3.82V80.15c0-4.88-6.3-4.11-10.76-4V71.11L90.67,70"/></svg>