<svg id="Capa_1" data-name="Capa 1" xmlns="http://www.w3.org/2000/svg" viewBox="0 0 50 64"><defs><style>.cls-1{fill:#377c1e;}.cls-2{fill:#fff;stroke:#fff;stroke-miterlimit:10;}</style></defs><title>pin-station</title><polygon class="cls-1" points="0 0 0 49.6 15.7 49.6 25 64 34.3 49.6 50 49.6 50 0 0 0"/><polygon class="cls-2" points="22.21 35.37 20.82 36.77 29.18 36.77 27.71 35.37 22.21 35.37"/><path class="cls-2" d="M17.23,36.91a.68.68,0,0,0,.51,1.17h1.47a.79.79,0,0,0,.51-.22l1.1-1.1H17.38Z"/><path class="cls-2" d="M30.28,37.86a.67.67,0,0,0,.51.22h1.47a.7.7,0,0,0,.51-1.17l-.15-.15H29.18Z"/><path class="cls-2" d="M36,30.53v-13c0-4.84-5.5-5.5-11-5.5s-11,.66-11,5.5v13a4.83,4.83,0,0,0,4.84,4.84l-1.47,1.47h3.45l1.47-1.47h5.5l1.47,1.47H32.7l-1.47-1.47A4.87,4.87,0,0,0,36,30.53ZM18.77,32.59a2.05,2.05,0,1,1,2.05-2.05A2,2,0,0,1,18.77,32.59ZM23.61,23H16.72v-5.5h6.89Zm2.79,0v-5.5h6.89V23Zm2.71,7.55a2.05,2.05,0,1,1,2.05,2.05A2.1,2.1,0,0,1,29.1,30.53Z"/></svg>