<svg id="Capa_1" data-name="Capa 1" xmlns="http://www.w3.org/2000/svg" viewBox="0 0 92 28"><defs><style>.cls-1{opacity:0.2;}.cls-2{fill:#fff;stroke:#fff;stroke-miterlimit:10;}</style></defs><title>pin-station-shadow</title><g class="cls-1"><polygon points="49.6 6.84 0 23.29 12.23 23.25 5.07 28 26.72 23.2 38.95 23.16 88.55 6.7 49.6 6.84"/><polygon class="cls-2" points="27.97 19.48 24.59 20.12 33.47 20.09 33.81 19.46 27.97 19.48"/><path class="cls-2" d="M20.57,20.2c-1.07.2-1.76.53-1.05.53h1.56a5.56,5.56,0,0,0,.85-.1l2.67-.5H20.93Z"/><path class="cls-2" d="M33.14,20.58c0,.07,0,.1.25.1h1.56a5.24,5.24,0,0,0,2.15-.53l0-.07H33.47Z"/><path class="cls-2" d="M49.21,17.25,67,11.34c6.6-2.19,1.66-2.47-4.18-2.45s-12.58.34-19.18,2.53l-17.8,5.9c-3.6,1.19-4.34,2.18-1.46,2.17l-3.56.67h3.66L28,19.48l5.84,0-.44.66h3.66l.44-.66A46.87,46.87,0,0,0,49.21,17.25Zm-21.11,1c-1.25,0-.88-.42.62-.92a19.52,19.52,0,0,1,5-.94c1.25,0,.88.42-.62.92A19,19,0,0,1,28.11,18.24Zm18.24-4.36L39,13.9l7.5-2.49,7.32,0Zm3,0,7.5-2.49,7.32,0-7.5,2.49Zm-7.42,3.41a19.52,19.52,0,0,1,5-.94c1.25,0,.88.42-.62.92a19.52,19.52,0,0,1-5,.94C40.1,18.2,40.39,17.77,41.89,17.27Z"/></g></svg>