<svg id="Layer_1" data-name="Layer 1" xmlns="http://www.w3.org/2000/svg" viewBox="0 0 64 64"><defs><style>.cls-1{stroke:#000;stroke-miterlimit:10;}.cls-2{fill:#fff;}</style></defs><title>slide-back-white</title><circle class="cls-1" cx="32" cy="32" r="22.12"/><path class="cls-2" d="M0,32A32,32,0,1,0,32,0,32,32,0,0,0,0,32Zm21.4,0h0a2.5,2.5,0,0,1,.8-1.8L37,15.4h0a2.47,2.47,0,0,1,3.5,3.5l-.2.2L27.4,32,40.5,45.1h0a2.51,2.51,0,0,1-.1,3.5,2.41,2.41,0,0,1-3.4,0L22.2,33.8h0A2.5,2.5,0,0,1,21.4,32Z"/></svg>