<svg id="Capa_1" data-name="Capa 1" xmlns="http://www.w3.org/2000/svg" viewBox="0 0 429.22 512"><defs><style>.cls-1{fill:#1a4314;}</style></defs><title>station</title><path class="cls-1" d="M285.54,152.62H226.46A34.5,34.5,0,0,0,192,187.08v88.62a4.93,4.93,0,0,0,4.92,4.92H315.08a4.93,4.93,0,0,0,4.92-4.92V187.08A34.5,34.5,0,0,0,285.54,152.62Zm-44.39,95a14,14,0,0,1-.21,1.43c-.1.47-.22.95-.35,1.41s-.3.92-.49,1.36-.39.88-.62,1.3-.47.85-.74,1.25-.55.79-.86,1.16-.64.74-1,1.08-.71.66-1.08,1-.77.59-1.16.86a13.81,13.81,0,0,1-1.25.74q-.63.34-1.3.62c-.44.19-.91.35-1.36.49s-.93.26-1.41.35-1,.17-1.43.22-1,.07-1.46.07-1,0-1.46-.07-1-.13-1.43-.22-.95-.22-1.41-.35-.92-.3-1.36-.49-.88-.39-1.3-.62a13.9,13.9,0,0,1-1.25-.74c-.39-.27-.79-.56-1.16-.86s-.74-.64-1.08-1-.67-.71-1-1.08-.59-.77-.86-1.16a14.16,14.16,0,0,1-.74-1.25q-.34-.63-.62-1.3c-.19-.44-.35-.91-.49-1.36s-.26-.93-.35-1.41a14.28,14.28,0,0,1-.21-1.43,13.47,13.47,0,0,1,0-2.91,14.07,14.07,0,0,1,.21-1.43c.1-.47.22-.95.35-1.41s.3-.92.49-1.36.39-.89.62-1.3.47-.85.74-1.25.55-.79.86-1.16a14.49,14.49,0,0,1,1-1.07c.35-.35.71-.67,1.08-1s.77-.59,1.16-.86a13.81,13.81,0,0,1,1.25-.74q.63-.34,1.3-.62c.44-.19.91-.35,1.36-.49s.93-.26,1.41-.35,1-.17,1.43-.22a15.93,15.93,0,0,1,2.91,0c.47.05,1,.13,1.43.22s.95.22,1.41.35.92.31,1.36.49.88.39,1.3.62a14.14,14.14,0,0,1,1.25.74c.39.27.79.56,1.16.86s.74.64,1.08,1a14.49,14.49,0,0,1,1,1.07c.3.37.59.77.86,1.16a14.29,14.29,0,0,1,.74,1.25c.23.41.43.86.62,1.3s.35.91.49,1.36.26.93.35,1.41a14.36,14.36,0,0,1,.21,1.43,13.47,13.47,0,0,1,0,2.91Zm59.09,0c0,.47-.13,1-.22,1.43s-.22.95-.35,1.41-.3.92-.49,1.36-.39.88-.62,1.3-.47.85-.74,1.25-.55.79-.86,1.16-.64.74-1,1.08-.71.66-1.08,1-.77.59-1.16.86a13.8,13.8,0,0,1-1.25.74q-.63.34-1.3.62c-.44.19-.91.35-1.36.49s-.93.26-1.41.35-1,.17-1.43.22-1,.07-1.46.07-1,0-1.46-.07-1-.13-1.43-.22-.95-.22-1.41-.35-.92-.3-1.36-.49-.89-.39-1.31-.62-.84-.47-1.24-.74-.79-.56-1.16-.86-.74-.64-1.08-1-.67-.71-1-1.08-.59-.77-.86-1.16a14.17,14.17,0,0,1-.74-1.25q-.34-.63-.62-1.3c-.19-.44-.35-.91-.49-1.36s-.26-.93-.35-1.41-.17-1-.22-1.43a15.41,15.41,0,0,1,0-2.91c0-.47.13-1,.22-1.43s.22-.95.35-1.41.3-.92.49-1.36.39-.89.62-1.3.47-.85.74-1.25.55-.79.86-1.16a14.49,14.49,0,0,1,1-1.07c.35-.35.71-.67,1.08-1s.77-.59,1.16-.86.82-.51,1.24-.74.87-.43,1.31-.62.91-.35,1.36-.49.93-.26,1.41-.35,1-.17,1.43-.22a15.93,15.93,0,0,1,2.91,0c.47.05,1,.13,1.43.22s.95.22,1.41.35.92.31,1.36.49.89.39,1.31.62.84.47,1.24.74.79.56,1.16.86.74.64,1.08,1,.67.7,1,1.07.59.77.86,1.16a14.3,14.3,0,0,1,.74,1.25c.23.41.43.86.62,1.3s.35.91.49,1.36.26.93.35,1.41.17,1,.22,1.43a14.5,14.5,0,0,1,.07,1.46C300.31,246.64,300.29,247.13,300.24,247.61Zm-14.7-45.76H226.46a14.77,14.77,0,1,1,0-29.54h59.08a14.77,14.77,0,1,1,0,29.54Z" transform="translate(-41.39)"/><path class="cls-1" d="M407.75,62.86A214.61,214.61,0,1,0,104.25,366.36L245.56,507.67a14.77,14.77,0,0,0,20.89,0L407.75,366.36a214.61,214.61,0,0,0,0-303.51ZM349.54,275.69a34.5,34.5,0,0,1-30.38,34.21l9.13,18.26a14.77,14.77,0,1,1-26.42,13.21l-15.61-31.22H225.74l-15.61,31.22a14.77,14.77,0,0,1-26.42-13.21l9.13-18.26a34.51,34.51,0,0,1-30.38-34.21V187.08a64.07,64.07,0,0,1,64-64h59.08a64.07,64.07,0,0,1,64,64v88.61Z" transform="translate(-41.39)"/></svg>