<svg id="Layer_1" data-name="Layer 1" xmlns="http://www.w3.org/2000/svg" viewBox="0 0 53.65 64"><defs><style>.cls-1{fill:#1a4314;}</style></defs><title>station-location-green</title><path class="cls-1" d="M35.69,19.08H28.31A4.31,4.31,0,0,0,24,23.38V34.46a.62.62,0,0,0,.62.62H39.38a.62.62,0,0,0,.62-.62V23.38A4.31,4.31,0,0,0,35.69,19.08ZM30.14,31a1.75,1.75,0,0,1,0,.18c0,.06,0,.12,0,.18l-.06.17-.08.16-.09.16-.11.15-.12.14-.14.12-.15.11-.16.09-.16.08-.17.06-.18,0-.18,0h-.36l-.18,0-.18,0-.17-.06-.16-.08-.16-.09-.15-.11L27,32.08l-.12-.14-.11-.15-.09-.16-.08-.16-.06-.17c0-.06,0-.12,0-.18a1.78,1.78,0,0,1,0-.18,1.68,1.68,0,0,1,0-.36,1.76,1.76,0,0,1,0-.18c0-.06,0-.12,0-.18l.06-.17.08-.16.09-.16.11-.15.12-.13.14-.12.15-.11.16-.09.16-.08.17-.06.18,0,.18,0a2,2,0,0,1,.36,0l.18,0,.18,0,.17.06.16.08.16.09.15.11.14.12.12.13.11.15.09.16.08.16.06.17c0,.06,0,.12,0,.18a1.79,1.79,0,0,1,0,.18,1.68,1.68,0,0,1,0,.36Zm7.39,0c0,.06,0,.12,0,.18s0,.12,0,.18l-.06.17-.08.16-.09.16-.11.15-.12.14-.14.12-.15.11-.16.09-.16.08-.17.06-.18,0-.18,0h-.36l-.18,0-.18,0L35,32.47l-.16-.08-.16-.09-.15-.11-.14-.12-.12-.14-.11-.15-.09-.16L34,31.48l-.06-.17c0-.06,0-.12,0-.18s0-.12,0-.18a1.93,1.93,0,0,1,0-.36c0-.06,0-.12,0-.18s0-.12,0-.18l.06-.17.08-.16.09-.16.11-.15.12-.13.14-.12.15-.11.16-.09.16-.08.17-.06.18,0,.18,0a2,2,0,0,1,.36,0l.18,0,.18,0,.17.06.16.08.16.09.15.11.14.12.12.13.11.15.09.16.08.16.06.17c0,.06,0,.12,0,.18s0,.12,0,.18a1.81,1.81,0,0,1,0,.18C37.54,30.83,37.54,30.89,37.53,31Zm-1.84-5.72H28.31a1.85,1.85,0,0,1,0-3.69h7.38a1.85,1.85,0,1,1,0,3.69Z" transform="translate(-5.17)"/><path class="cls-1" d="M51,7.86A26.83,26.83,0,1,0,13,45.8L30.69,63.46a1.85,1.85,0,0,0,2.61,0L51,45.8A26.83,26.83,0,0,0,51,7.86Zm-7.28,26.6a4.31,4.31,0,0,1-3.8,4.28L41,41a1.85,1.85,0,1,1-3.3,1.65l-2-3.9H28.22l-2,3.9A1.85,1.85,0,0,1,23,41l1.14-2.28a4.31,4.31,0,0,1-3.8-4.28V23.38a8,8,0,0,1,8-8h7.38a8,8,0,0,1,8,8V34.46Z" transform="translate(-5.17)"/></svg>