<svg id="Layer_1" data-name="Layer 1" xmlns="http://www.w3.org/2000/svg" viewBox="0 0 64 64"><defs><style>.cls-1{fill:#1a4314;}</style></defs><title>ticket</title><path class="cls-1" d="M63.1,18a2.9,2.9,0,0,0,0-4.2L50.1.8A3,3,0,0,0,46,.8a5.31,5.31,0,0,1-7.4,0h0a3,3,0,0,0-4.1,0L.9,34.4a2.9,2.9,0,0,0,0,4.2,5.14,5.14,0,0,1,1.5,3.7A5.14,5.14,0,0,1,.9,46a3,3,0,0,0,0,4.1l13,13a2.9,2.9,0,0,0,4.2,0,5.31,5.31,0,0,1,7.4,0,2.9,2.9,0,0,0,4.2,0L63.3,29.5a2.9,2.9,0,0,0,0-4.2A5,5,0,0,1,63.1,18Zm-1.7,9.2a.5.5,0,0,1,0,.6L27.8,61.4a.5.5,0,0,1-.6,0,7.73,7.73,0,0,0-11,0,.5.5,0,0,1-.6,0l-13-13a.37.37,0,0,1,0-.6,7.64,7.64,0,0,0,2.3-5.5,7.64,7.64,0,0,0-2.3-5.5.5.5,0,0,1,0-.6L36.2,2.6a.37.37,0,0,1,.6,0h0a7.81,7.81,0,0,0,5.5,2.3,7.81,7.81,0,0,0,5.5-2.3.37.37,0,0,1,.6,0l13,13a.5.5,0,0,1,0,.6,7.85,7.85,0,0,0,0,11Z"/><path class="cls-1" d="M57.6,15.4l-9-9a1.21,1.21,0,0,0-1.5-.2,10.4,10.4,0,0,1-9.7,0,1.09,1.09,0,0,0-1.4.2L6.4,36a1.21,1.21,0,0,0-.2,1.5,10.4,10.4,0,0,1,0,9.7,1.21,1.21,0,0,0,.2,1.5l9,9a1.49,1.49,0,0,0,.9.4,1.27,1.27,0,0,0,.6-.1,10.4,10.4,0,0,1,9.7,0,1.21,1.21,0,0,0,1.5-.2L57.6,28a1.21,1.21,0,0,0,.2-1.5,10.4,10.4,0,0,1,0-9.7,1.09,1.09,0,0,0-.2-1.4ZM26.9,55.2a13.48,13.48,0,0,0-5.2-1.1,13.48,13.48,0,0,0-5.2,1.1L8.8,47.5a12.58,12.58,0,0,0,0-10.4L19.6,26.3,37.7,44.4ZM55.2,26.9,39.5,42.6,21.4,24.5,37.1,8.8a12.58,12.58,0,0,0,10.4,0l7.7,7.7a12.58,12.58,0,0,0,0,10.4Z"/><path class="cls-1" d="M43.2,24.3,44.3,21a.64.64,0,0,0,0-.6.93.93,0,0,0-1.2-.6l-3.3,1.1L37,18.8h0a1.42,1.42,0,0,0-.6-.2,1.08,1.08,0,0,0-1,1l.1,3.5-2.9,2h0a1,1,0,0,0-.4.5.9.9,0,0,0,.6,1.2l3.4,1,1,3.3a2.09,2.09,0,0,0,.4.6,1.08,1.08,0,0,0,1.4-.2l2-2.9,3.5.1c.2,0,.5,0,.6-.2a1.06,1.06,0,0,0,.2-1.4Z"/><path class="cls-1" d="M30.6,40.8l-7.4-7.4a1.27,1.27,0,1,0-1.8,1.8l7.4,7.4a1.49,1.49,0,0,0,.9.4,1.22,1.22,0,0,0,.9-.4,1.27,1.27,0,0,0,0-1.8Z"/><path class="cls-1" d="M19.7,36.9a1.27,1.27,0,1,0-1.8,1.8l7.4,7.4a1.49,1.49,0,0,0,.9.4,1.22,1.22,0,0,0,.9-.4,1.27,1.27,0,0,0,0-1.8Z"/><path class="cls-1" d="M16.2,40.5a1.27,1.27,0,0,0-1.8,1.8l7.4,7.4a1.49,1.49,0,0,0,.9.4,1.22,1.22,0,0,0,.9-.4,1.27,1.27,0,0,0,0-1.8Z"/></svg>