<svg id="Layer_1" data-name="Layer 1" xmlns="http://www.w3.org/2000/svg" viewBox="0 0 64 64"><defs><style>.cls-1{fill:#ced2d6;}.cls-2{fill:#bf2206;}.cls-3{fill:#0c531b;}</style></defs><title>white</title><path class="cls-1" d="M32,64A32,32,0,0,0,62.4,42H1.6A32,32,0,0,0,32,64Z"/><path class="cls-1" d="M32,0A32,32,0,0,0,1.94,21H62.06A32,32,0,0,0,32,0Z"/><path class="cls-2" d="M1.94,21A31.94,31.94,0,0,0,0,32a32.26,32.26,0,0,0,.26,4H63.74A32.26,32.26,0,0,0,64,32a31.94,31.94,0,0,0-1.94-11Z"/><path class="cls-3" d="M.26,36A31.81,31.81,0,0,0,1.6,42H62.4a31.81,31.81,0,0,0,1.34-6Z"/></svg>