<svg id="Layer_1" data-name="Layer 1" xmlns="http://www.w3.org/2000/svg" viewBox="0 0 64 64"><defs><style>.cls-1{fill:#cf1212;}.cls-2{fill:#fff;}</style></defs><title>train-64</title><circle class="cls-1" cx="32" cy="32" r="32"/><g id="directions-subway"><path class="cls-2" d="M32.25,8C21,8,11.85,9.3,11.85,18.23V42.45a9,9,0,0,0,8.92,8.92L17,55.2v1.27h30.6V55.2l-3.82-3.83a9,9,0,0,0,8.92-8.92V18.23C52.65,9.3,43.47,8,32.25,8ZM20.78,46.28a3.82,3.82,0,1,1,3.83-3.82A3.92,3.92,0,0,1,20.78,46.28ZM29.7,31H17V18.23H29.7Zm14,15.3a3.82,3.82,0,1,1,3.82-3.82A3.92,3.92,0,0,1,43.73,46.28ZM47.55,31H34.8V18.23H47.55Z"/></g></svg>