<svg id="Layer_1" data-name="Layer 1" xmlns="http://www.w3.org/2000/svg" viewBox="0 0 64 64"><defs><style>.cls-1{fill:#0c531b;}.cls-2{fill:#bf2206;}.cls-3{fill:#ced2d6;}</style></defs><title>green</title><path class="cls-1" d="M32,63.5a31.43,31.43,0,0,1-29.7-21H61.7A31.43,31.43,0,0,1,32,63.5Z"/><path class="cls-1" d="M61,43A31,31,0,0,1,3,43H61m1.41-1H1.6a32,32,0,0,0,60.8,0Z"/><path class="cls-1" d="M2.67,20.5a31.51,31.51,0,0,1,58.67,0Z"/><path class="cls-1" d="M32,1A31.12,31.12,0,0,1,60.59,20H3.41A31.12,31.12,0,0,1,32,1m0-1A32,32,0,0,0,1.94,21H62.06A32,32,0,0,0,32,0Z"/><path class="cls-2" d="M1.94,21A31.94,31.94,0,0,0,0,32a32.26,32.26,0,0,0,.26,4H63.74A32.26,32.26,0,0,0,64,32a31.94,31.94,0,0,0-1.94-11Z"/><path class="cls-3" d="M.26,36A31.81,31.81,0,0,0,1.6,42H62.4a31.81,31.81,0,0,0,1.34-6Z"/></svg>