<svg id="Layer_1" data-name="Layer 1" xmlns="http://www.w3.org/2000/svg" viewBox="0 0 53.5 63.53"><defs><style>.cls-1{fill:#211111;}</style></defs><title>train-grey</title><g id="directions-subway"><path class="cls-1" d="M32.25.48C17.54.48,5.5,2.16,5.5,13.86V45.63a11.85,11.85,0,0,0,11.7,11.7l-5,5V64H52.31V62.34l-5-5A11.85,11.85,0,0,0,59,45.63V13.86C59,2.16,47,.48,32.25.48Zm-15,50.16a5,5,0,0,1,0-10,5,5,0,0,1,0,10Zm11.7-20.06H12.19V13.86H28.91ZM47.3,50.64a5,5,0,1,1,5-5A5.14,5.14,0,0,1,47.3,50.64Zm5-20.06H35.59V13.86H52.31Z" transform="translate(-5.5 -0.48)"/></g></svg>