<svg id="Layer_1" data-name="Layer 1" xmlns="http://www.w3.org/2000/svg" viewBox="0 0 64 64"><defs><style>.cls-1{fill:#011;}.cls-2{fill:#cf1212;}</style></defs><title>train-64-black-red</title><circle class="cls-1" cx="32" cy="32" r="32"/><g id="directions-subway"><path class="cls-2" d="M32.25,12.5c-9.15,0-16.63,1-16.63,8.32V40.57a7.37,7.37,0,0,0,7.28,7.28L19.78,51v1H44.72V51l-3.12-3.12a7.37,7.37,0,0,0,7.28-7.28V20.82C48.88,13.54,41.4,12.5,32.25,12.5ZM22.89,43.68A3.12,3.12,0,1,1,26,40.57,3.2,3.2,0,0,1,22.89,43.68Zm7.28-12.47H19.78V20.82H30.17ZM41.61,43.68a3.12,3.12,0,1,1,3.12-3.12A3.2,3.2,0,0,1,41.61,43.68Zm3.12-12.47H34.33V20.82H44.72Z"/></g></svg>