<?xml version="1.0" encoding="iso-8859-1"?>
<!-- Generator: Adobe Illustrator 19.0.0, SVG Export Plug-In . SVG Version: 6.00 Build 0)  -->
<svg version="1.1" id="Capa_1" xmlns="http://www.w3.org/2000/svg" xmlns:xlink="http://www.w3.org/1999/xlink" x="0px" y="0px"
	 viewBox="0 0 512 512" style="enable-background:new 0 0 512 512;" xml:space="preserve">
<g>
	<g>
		<path d="M285.538,152.615h-59.077c-19.002,0-34.462,15.459-34.462,34.462v88.615c0,2.715,2.208,4.923,4.923,4.923h118.154
			c2.715,0,4.923-2.208,4.923-4.923v-88.615C320,168.075,304.541,152.615,285.538,152.615z M241.152,247.61
			c-0.039,0.473-0.118,0.956-0.207,1.428c-0.099,0.473-0.217,0.945-0.354,1.408c-0.148,0.453-0.305,0.917-0.492,1.36
			c-0.187,0.442-0.394,0.876-0.62,1.299c-0.226,0.433-0.473,0.847-0.738,1.251c-0.266,0.393-0.551,0.788-0.857,1.162
			s-0.64,0.738-0.975,1.083c-0.345,0.336-0.709,0.661-1.083,0.975c-0.374,0.295-0.768,0.592-1.162,0.857
			c-0.404,0.267-0.817,0.513-1.25,0.738c-0.423,0.227-0.857,0.433-1.3,0.62c-0.443,0.187-0.906,0.346-1.359,0.492
			c-0.463,0.139-0.935,0.256-1.408,0.354c-0.473,0.089-0.955,0.167-1.428,0.217c-0.482,0.039-0.975,0.069-1.457,0.069
			c-0.482,0-0.975-0.03-1.457-0.069c-0.473-0.049-0.955-0.128-1.428-0.217c-0.473-0.099-0.945-0.217-1.408-0.354
			c-0.453-0.147-0.916-0.305-1.359-0.492c-0.443-0.186-0.876-0.393-1.3-0.62c-0.433-0.225-0.847-0.472-1.25-0.738
			c-0.394-0.266-0.788-0.561-1.162-0.857c-0.374-0.314-0.738-0.639-1.083-0.975c-0.335-0.345-0.67-0.709-0.975-1.083
			s-0.591-0.768-0.857-1.162c-0.266-0.404-0.512-0.817-0.738-1.251c-0.226-0.423-0.433-0.857-0.62-1.299
			c-0.187-0.443-0.345-0.907-0.492-1.36c-0.138-0.463-0.256-0.934-0.354-1.408c-0.089-0.472-0.167-0.955-0.207-1.428
			c-0.049-0.482-0.079-0.974-0.079-1.456c0-0.482,0.03-0.975,0.079-1.457c0.039-0.472,0.118-0.955,0.207-1.428
			c0.098-0.472,0.217-0.945,0.354-1.408c0.148-0.453,0.305-0.916,0.492-1.359c0.187-0.443,0.394-0.886,0.62-1.3
			c0.226-0.432,0.473-0.846,0.738-1.25c0.266-0.394,0.551-0.788,0.857-1.162c0.305-0.375,0.64-0.738,0.975-1.074
			c0.345-0.345,0.709-0.67,1.083-0.985c0.374-0.295,0.768-0.591,1.162-0.856c0.404-0.267,0.817-0.513,1.25-0.738
			c0.423-0.226,0.857-0.433,1.3-0.621c0.443-0.186,0.906-0.345,1.359-0.492c0.463-0.138,0.935-0.256,1.408-0.353
			c0.473-0.089,0.955-0.167,1.428-0.218c0.965-0.089,1.95-0.089,2.914,0c0.473,0.05,0.955,0.129,1.428,0.218
			c0.473,0.098,0.945,0.217,1.408,0.353c0.453,0.148,0.916,0.306,1.359,0.492c0.443,0.187,0.876,0.394,1.3,0.621
			c0.433,0.226,0.847,0.472,1.25,0.738c0.394,0.266,0.788,0.56,1.162,0.856c0.374,0.315,0.738,0.64,1.083,0.985
			c0.335,0.336,0.67,0.699,0.975,1.074c0.305,0.374,0.591,0.767,0.857,1.162c0.266,0.404,0.512,0.817,0.738,1.25
			c0.226,0.414,0.433,0.857,0.62,1.3c0.187,0.443,0.345,0.906,0.492,1.359c0.138,0.463,0.256,0.935,0.354,1.408
			c0.089,0.473,0.167,0.956,0.207,1.428c0.049,0.482,0.079,0.975,0.079,1.457C241.231,246.636,241.201,247.129,241.152,247.61z
			 M300.239,247.61c-0.049,0.473-0.128,0.956-0.217,1.428c-0.098,0.473-0.217,0.945-0.354,1.408
			c-0.148,0.453-0.305,0.917-0.492,1.36c-0.187,0.442-0.394,0.876-0.62,1.299c-0.226,0.433-0.473,0.847-0.738,1.251
			c-0.266,0.393-0.551,0.788-0.857,1.162s-0.64,0.738-0.975,1.083c-0.345,0.336-0.709,0.661-1.083,0.975
			c-0.374,0.295-0.768,0.592-1.162,0.857c-0.404,0.267-0.817,0.513-1.25,0.738c-0.423,0.227-0.857,0.433-1.3,0.62
			c-0.443,0.187-0.906,0.346-1.359,0.492c-0.463,0.139-0.935,0.256-1.408,0.354c-0.473,0.089-0.955,0.167-1.428,0.217
			c-0.482,0.039-0.975,0.069-1.457,0.069c-0.482,0-0.975-0.03-1.457-0.069c-0.473-0.049-0.955-0.128-1.428-0.217
			c-0.473-0.099-0.945-0.217-1.408-0.354c-0.453-0.147-0.916-0.305-1.359-0.492c-0.443-0.186-0.886-0.393-1.31-0.62
			c-0.423-0.225-0.837-0.472-1.241-0.738c-0.394-0.266-0.788-0.561-1.162-0.857c-0.374-0.314-0.738-0.639-1.083-0.975
			c-0.335-0.345-0.67-0.709-0.975-1.083c-0.305-0.374-0.591-0.768-0.857-1.162c-0.266-0.404-0.512-0.817-0.738-1.251
			c-0.227-0.423-0.433-0.857-0.62-1.299c-0.187-0.443-0.345-0.907-0.492-1.36c-0.138-0.463-0.256-0.934-0.354-1.408
			c-0.089-0.472-0.167-0.955-0.217-1.428c-0.049-0.482-0.069-0.974-0.069-1.456c0-0.482,0.02-0.975,0.069-1.457
			c0.049-0.472,0.128-0.955,0.217-1.428c0.099-0.472,0.217-0.945,0.354-1.408c0.148-0.453,0.305-0.916,0.492-1.359
			c0.187-0.443,0.394-0.886,0.62-1.3c0.226-0.432,0.473-0.846,0.738-1.25c0.266-0.394,0.551-0.788,0.857-1.162
			c0.305-0.375,0.64-0.738,0.975-1.074c0.345-0.345,0.709-0.67,1.083-0.985c0.374-0.295,0.768-0.591,1.162-0.856
			c0.404-0.267,0.817-0.513,1.241-0.738c0.423-0.226,0.866-0.433,1.31-0.621c0.443-0.186,0.906-0.345,1.359-0.492
			c0.463-0.138,0.935-0.256,1.408-0.353c0.473-0.089,0.955-0.167,1.428-0.218c0.965-0.089,1.95-0.089,2.914,0
			c0.473,0.05,0.955,0.129,1.428,0.218c0.473,0.098,0.945,0.217,1.408,0.353c0.453,0.148,0.916,0.306,1.359,0.492
			c0.443,0.187,0.886,0.394,1.31,0.621c0.423,0.226,0.837,0.472,1.241,0.738c0.394,0.266,0.788,0.56,1.162,0.856
			c0.374,0.315,0.738,0.64,1.083,0.985c0.335,0.336,0.669,0.699,0.975,1.074c0.305,0.374,0.591,0.767,0.857,1.162
			c0.266,0.404,0.512,0.817,0.738,1.25c0.226,0.414,0.433,0.857,0.62,1.3c0.187,0.443,0.345,0.906,0.492,1.359
			c0.138,0.463,0.256,0.935,0.354,1.408c0.089,0.473,0.167,0.956,0.217,1.428c0.049,0.482,0.069,0.975,0.069,1.457
			C300.308,246.636,300.288,247.129,300.239,247.61z M285.538,201.846h-59.077c-8.157,0-14.769-6.613-14.769-14.769
			s6.613-14.769,14.769-14.769h59.077c8.157,0,14.769,6.613,14.769,14.769S293.695,201.846,285.538,201.846z"/>
	</g>
</g>
<g>
	<g>
		<path d="M407.753,62.859C367.218,22.324,313.324,0,256,0S144.782,22.324,104.247,62.859s-62.859,94.428-62.859,151.753
			c0,57.325,22.323,111.218,62.859,151.753l141.31,141.31C248.44,510.557,252.22,512,256,512s7.56-1.443,10.443-4.326l141.31-141.31
			c40.535-40.535,62.859-94.428,62.859-151.753S448.287,103.393,407.753,62.859z M349.538,275.692
			c0,17.621-13.297,32.186-30.381,34.211l9.13,18.261c3.648,7.295,0.69,16.167-6.605,19.814c-2.12,1.06-4.374,1.563-6.593,1.563
			c-5.418,0-10.634-2.991-13.221-8.167l-15.612-31.22h-60.513l-15.61,31.22c-2.588,5.175-7.804,8.167-13.221,8.167
			c-2.219,0-4.473-0.502-6.593-1.563c-7.296-3.647-10.253-12.519-6.605-19.814l9.13-18.261
			c-17.085-2.025-30.382-16.591-30.382-34.211v-88.615c0-35.29,28.71-64,64-64h59.077c35.29,0,64,28.71,64,64V275.692z"/>
	</g>
</g>
<g>
</g>
<g>
</g>
<g>
</g>
<g>
</g>
<g>
</g>
<g>
</g>
<g>
</g>
<g>
</g>
<g>
</g>
<g>
</g>
<g>
</g>
<g>
</g>
<g>
</g>
<g>
</g>
<g>
</g>
</svg>
