<svg id="Layer_1" data-name="Layer 1" xmlns="http://www.w3.org/2000/svg" viewBox="0 0 64 64"><defs><style>.cls-1{fill:#1a1a1a;}.cls-2{fill:#fff;}</style></defs><title>train-grey-box</title><rect class="cls-1" width="64" height="64"/><g id="directions-subway"><path class="cls-2" d="M32,3.25C18.68,3.25,7.79,4.76,7.79,15.36V44.11A10.72,10.72,0,0,0,18.38,54.7l-4.54,4.54v1.51H50.16V59.24L45.62,54.7A10.72,10.72,0,0,0,56.21,44.11V15.36C56.21,4.76,45.32,3.25,32,3.25ZM18.38,48.64a4.54,4.54,0,1,1,0-9.08,4.54,4.54,0,0,1,0,9.08ZM29,30.49H13.84V15.36H29ZM45.62,48.64a4.54,4.54,0,1,1,4.54-4.54A4.65,4.65,0,0,1,45.62,48.64Zm4.54-18.16H35V15.36H50.16Z"/></g></svg>