<svg height="512pt" viewBox="0 0 512 512" width="512pt" xmlns="http://www.w3.org/2000/svg"><path d="m420.328125 0h-328.65625c-50.546875 0-91.671875 41.125-91.671875 91.671875v328.65625c0 50.546875 41.125 91.671875 91.671875 91.671875h280.289063c4.199218 0 7.601562-3.40625 7.601562-7.605469s-3.402344-7.601562-7.601562-7.601562h-280.289063c-42.160156 0-76.464844-34.304688-76.464844-76.464844v-328.65625c0-42.160156 34.304688-76.464844 76.464844-76.464844h328.65625c42.160156 0 76.464844 34.304688 76.464844 76.464844v328.65625c0 42.160156-34.304688 76.464844-76.464844 76.464844h-17.949219c-4.199218 0-7.605468 3.402343-7.605468 7.601562s3.40625 7.605469 7.605468 7.605469h17.949219c50.546875 0 91.671875-41.125 91.671875-91.671875v-328.65625c0-50.546875-41.125-91.671875-91.671875-91.671875zm0 0"/><path d="m172.28125 286.0625h13.355469c4.199219 0 7.605469-3.402344 7.605469-7.601562 0-4.199219-3.40625-7.605469-7.605469-7.605469h-13.355469c-12.519531 0-22.707031-10.1875-22.707031-22.707031v-101.53125h212.851562v101.527343c0 12.523438-10.1875 22.710938-22.710937 22.710938h-123.660156c-4.199219 0-7.601563 3.402343-7.601563 7.605469 0 4.199218 3.402344 7.601562 7.601563 7.601562h123.660156c20.90625 0 37.917968-17.007812 37.917968-37.917969v-124.339843c0-18.945313-15.414062-34.359376-34.359374-34.359376h-174.550782c-18.945312 0-34.359375 15.414063-34.359375 34.355469v124.34375c0 20.910157 17.011719 37.917969 37.917969 37.917969zm190.144531-162.257812v7.601562h-63.148437v-26.753906h43.996094c10.558593 0 19.152343 8.589844 19.152343 19.152344zm-78.355469-19.152344v26.753906h-56.140624v-26.753906zm-115.347656 0h44v26.753906h-63.152344v-7.605469c.003907-10.558593 8.59375-19.148437 19.152344-19.148437zm0 0"/><path d="m192.917969 331.308594c0-17.304688-14.082031-31.386719-31.386719-31.386719-17.308594 0-31.386719 14.082031-31.386719 31.386719 0 17.304687 14.078125 31.386718 31.386719 31.386718 17.304688 0 31.386719-14.082031 31.386719-31.386718zm-47.566407 0c0-8.921875 7.257813-16.179688 16.179688-16.179688s16.175781 7.257813 16.175781 16.179688-7.253906 16.179687-16.175781 16.179687-16.179688-7.257812-16.179688-16.179687zm0 0"/><path d="m350.464844 299.921875c-17.304688 0-31.382813 14.082031-31.382813 31.386719 0 17.304687 14.078125 31.386718 31.382813 31.386718 17.308594 0 31.386718-14.082031 31.386718-31.386718 0-17.304688-14.078124-31.386719-31.386718-31.386719zm0 47.566406c-8.917969 0-16.175782-7.257812-16.175782-16.179687s7.257813-16.179688 16.175782-16.179688c8.921875 0 16.179687 7.257813 16.179687 16.179688s-7.257812 16.179687-16.179687 16.179687zm0 0"/><path d="m91.199219 459.269531c1.351562 2.371094 3.875 3.839844 6.605469 3.839844h54.5c3.1875 0 6.035156-1.984375 7.136718-4.976563l13.570313-36.835937h166.832031l13.574219 36.835937c1.101562 2.992188 3.949219 4.976563 7.132812 4.976563h54.5c2.734375 0 5.253907-1.464844 6.609375-3.839844 1.351563-2.371093 1.328125-5.289062-.066406-7.640625l-38.765625-65.46875c20.34375-5.464844 35.363281-24.050781 35.363281-46.085937v-216.269531c0-41.308594-33.605468-74.914063-74.914062-74.914063h-174.546875c-41.308594 0-74.914063 33.605469-74.914063 74.914063v216.269531c0 22.304687 15.382813 41.078125 36.097656 46.28125l-38.652343 65.273437c-1.390625 2.351563-1.414063 5.269532-.0625 7.640625zm87.417969-53.183593 6.738281-18.292969h142.148437l6.738282 18.292969zm187.238281 41.816406-22.144531-60.101563h22.414062l35.589844 60.101563zm-256.832031-107.828125v-216.269531c0-32.921876 26.785156-59.707032 59.707031-59.707032h174.546875c32.921875 0 59.707031 26.785156 59.707031 59.707032v216.269531c0 17.925781-14.59375 32.511719-32.527344 32.511719h-228.917969c-17.929687 0-32.515624-14.585938-32.515624-32.511719zm37.707031 47.726562h22.417969l-22.144532 60.101563h-35.859375zm0 0"/></svg>