<svg id="Capa_1" enable-background="new 0 0 511.402 511.402" height="512" viewBox="0 0 511.402 511.402" width="512" xmlns="http://www.w3.org/2000/svg"><circle cx="145.142" cy="133.17" r="29.51"/><path d="m475.955 500.842h35.447l-45.158-92.747h-35.447l8.677 17.82h-112.832l8.677-17.82h-35.447l-45.158 92.747h35.447l6.998-14.373h171.798zm-169.098-34.292 10.086-20.716h132.229l10.086 20.716z"/><path d="m345.549 127.563h75.017c6.6 0 11.951-5.351 11.951-11.951s-5.351-11.951-11.951-11.951h-75.017c-6.6 0-11.951 5.351-11.951 11.951s5.35 11.951 11.951 11.951z"/><path d="m303.511 392.116h37.711v-17.449c0-5.854 4.745-10.599 10.599-10.599h62.473c5.854 0 10.599 4.745 10.599 10.599v17.449h37.711c25.179 0 45.591-20.412 45.591-45.591v-156.013c0-25.179-20.412-45.59-45.591-45.59h-159.093c-25.179 0-45.59 20.411-45.59 45.59v156.014c-.001 25.178 20.411 45.59 45.59 45.59zm154.326-25.23c-11.727 0-21.234-9.507-21.234-21.234s9.507-21.234 21.234-21.234 21.234 9.507 21.234 21.234-9.507 21.234-21.234 21.234zm-170.793-166.202c0-7.939 6.436-14.375 14.375-14.375h163.277c7.939 0 14.375 6.436 14.375 14.375v70.887c0 7.939-6.436 14.375-14.375 14.375h-163.277c-7.939 0-14.375-6.436-14.375-14.375zm21.234 124.149c11.727 0 21.234 9.507 21.234 21.234s-9.507 21.234-21.234 21.234-21.234-9.507-21.234-21.234 9.507-21.234 21.234-21.234z"/><path d="m347.514.038h-347.514v30h13.087v29.891c-8.034 7.235-13.087 17.716-13.087 29.38 0 21.834 17.7 39.534 39.534 39.534s39.534-17.7 39.534-39.534c0-11.664-5.053-22.145-13.087-29.381v-29.89h281.533c8.284 0 15-6.716 15-15s-6.716-15-15-15zm-319.427 30h22.895v21.426c-3.624-1.095-7.466-1.689-11.447-1.689-3.982 0-7.823.595-11.447 1.689v-21.426zm27.102 65.271h-15.655c-3.313 0-6-2.686-6-6v-23.745c0-3.314 2.687-6 6-6s6 2.686 6 6v17.745h9.655c3.313 0 6 2.686 6 6s-2.686 6-6 6z"/><path d="m165.238 436.219c5.418-2.507 9.297-7.977 9.297-14.34v-231.486c0-10.245-8.188-18.55-18.434-18.55h-33.97c-10.245 0-18.55 8.305-18.55 18.55v2.347l8.58-4.572-28.347 25.182c-1.718 1.526-3.019 3.465-3.779 5.634l-16.863 48.132c-2.467 7.043 1.242 14.753 8.285 17.221 7.012 2.457 14.743-1.211 17.221-8.285l15.704-44.825 25.728-22.854-16.177 23.256-10.307 29.547v160.752c.019 6.346 4.019 11.792 9.421 14.291h-35.552c3.729-.761 6.543-4.169 6.543-8.112 0-1.507-.418-2.913-1.134-4.123 5.634-1.108 9.885-6.07 9.885-12.028v-96.413c0-5.772-3.993-10.599-9.363-11.904v-10.677c-4.686 1.647-9.94 1.778-14.992.008-.003-.001-.005-.002-.008-.003v10.313h-22.489c-6.773 0-12.263 5.491-12.263 12.264v96.413c0 5.958 4.251 10.92 9.885 12.028-.716 1.209-1.134 2.615-1.134 4.123 0 3.943 2.814 7.351 6.543 8.112h-48.968v23.923 51.223h217.665v-51.223h17.394v-23.923h-69.821zm-107.581-12h11.148c-.632 1.155-.992 2.479-.992 3.888 0 3.943 2.814 7.351 6.543 8.112h-22.251c3.729-.761 6.543-4.169 6.543-8.112.001-1.409-.359-2.734-.991-3.888zm68.637 12c5.433-2.514 8.921-8.008 8.902-14.387 0-.101.009-127.674 0-127.774h7.609v127.824c0 6.362 3.772 11.831 9.19 14.337z"/></svg>