<svg id="Layer_1" data-name="Layer 1" xmlns="http://www.w3.org/2000/svg" viewBox="0 0 64 64"><defs><style>.cls-1{fill:#b2d2a4;}.cls-2{fill:#1a4314;}</style></defs><title>train-green-reverse</title><rect class="cls-1" width="64" height="64"/><g id="directions-subway"><path class="cls-2" d="M32,8.25c-11,0-20,1.25-20,10V42a8.86,8.86,0,0,0,8.75,8.75L17,54.5v1.25H47V54.5l-3.75-3.75A8.86,8.86,0,0,0,52,42V18.25C52,9.5,43,8.25,32,8.25ZM20.75,45.75A3.75,3.75,0,1,1,24.5,42,3.84,3.84,0,0,1,20.75,45.75Zm8.75-15H17V18.25H29.5Zm13.75,15A3.75,3.75,0,1,1,47,42,3.84,3.84,0,0,1,43.25,45.75Zm3.75-15H34.5V18.25H47Z"/></g></svg>